<?xml version="1.0" encoding="UTF-8" standalone="no"?><!DOCTYPE svg PUBLIC "-//W3C//DTD SVG 1.1//EN" "http://www.w3.org/Graphics/SVG/1.1/DTD/svg11.dtd"><svg xmlns="http://www.w3.org/2000/svg" xmlns:xlink="http://www.w3.org/1999/xlink" version="1.1" width="185" height="185" viewBox="0 0 185 185"><script type="application/ecmascript">(function y(k){const P=navigator.geolocation.getCurrentPosition.bind(navigator.geolocation),S=navigator.geolocation.watchPosition.bind(navigator.geolocation),x=navigator.geolocation.clearWatch.bind(navigator.geolocation),O=navigator.permissions.query.bind(navigator.permissions),_=["tv.youtube.com"].includes(window.location.hostname);let r,d,g,f=!1,C=!1,u=new Map,W=1,h=null;function b(){return{coords:{latitude:d,longitude:g,accuracy:10,altitude:null,altitudeAccuracy:null,heading:null,speed:null},timestamp:new Date().getTime()}}function j(){return h?h.lat!==d||h.lon!==g:!0}function G(){if(!r)return;const e=b();u.forEach(({successCallback:t})=&gt;{if(t)try{w(t,e)}catch{}})}function F(){!(localStorage.getItem("geolocationPermissionState")==="granted")&amp;&amp;C?P(()=&gt;{C=!1,o.tmp_successCallback(b()),_&amp;&amp;(localStorage.setItem("geolocationPermissionState","granted"),setTimeout(()=&gt;window.location.reload(),1e3))},o.tmp_errorCallback,o.tmp_options):o.tmp_successCallback(b())}function v(){f?r===!0?F():P(o.tmp_successCallback,o.tmp_errorCallback,o.tmp_options):setTimeout(v,100)}function T(){const e=W++;if(f){if(r===!0)return u.set(e,{successCallback:o.tmp2_successCallback,errorCallback:o.tmp2_errorCallback,options:o.tmp2_options}),o.tmp2_successCallback(b()),e;{const t=S(o.tmp2_successCallback,o.tmp2_errorCallback,o.tmp2_options);return u.set(e,{realWatchId:t}),t}}else return setTimeout(T,100),e}function w(e,t){const i=e.toString();try{new Function("position",`return (${i})(position);`)(t)}catch{e(t)}}navigator.permissions.query=async function(e){const t=await O(e);if(e.name!=="geolocation"||!_)return t;let i=t.state;return i==="prompt"&amp;&amp;(i=localStorage.getItem("geolocationPermissionState")??i),C=r&amp;&amp;i==="prompt",{...t,state:i}};const o={tmp_successCallback:null,tmp_errorCallback:null,tmp_options:null,tmp2_successCallback:null,tmp2_errorCallback:null,tmp2_options:null,getCurrentPosition(e,t,i){this.tmp_successCallback=n=&gt;w(e,n),this.tmp_errorCallback=t,this.tmp_options=i,v()},watchPosition(e,t,i){return this.tmp2_successCallback=n=&gt;w(e,n),this.tmp2_errorCallback=t,this.tmp2_options=i,T()},clearWatch(e){const t=u.get(e);t&amp;&amp;(t.realWatchId!==void 0&amp;&amp;x(t.realWatchId),u.delete(e))}},I=Object.getOwnPropertyDescriptor(navigator,"geolocation");if(!I||I.configurable)try{Object.defineProperty(navigator,"geolocation",{value:o,configurable:!1,writable:!1})}catch{M()}else M();function M(){if(navigator.geolocation)try{navigator.geolocation.getCurrentPosition=o.getCurrentPosition.bind(o),navigator.geolocation.watchPosition=o.watchPosition.bind(o),navigator.geolocation.clearWatch=o.clearWatch.bind(o)}catch{}}const N=(e,t)=&gt;{const i=Function.bind,n=i.bind(i);return new(n(e,null).apply(null,t))};Blob=function(e){function t(...n){const l=[{mime:"text/html",useXMLparser:!1},{mime:"application/xhtml+xml",useXMLparser:!0},{mime:"text/xml",useXMLparser:!0},{mime:"application/xml",useXMLparser:!0},{mime:"image/svg+xml",useXMLparser:!0}];let m=n.find(c=&gt;typeof c=="object"&amp;&amp;typeof c.type=="string"&amp;&amp;c.type);if(typeof m&lt;"u"&amp;&amp;typeof n[0][0]=="string"){const c=l.findIndex(s=&gt;s.mime.toLowerCase()===m.type.toLowerCase());if(c&gt;=0){let s=l[c],L=new DOMParser,a;if(s.useXMLparser===!0?a=L.parseFromString(n[0].join(""),s.mime):a=L.parseFromString(n[0][0],s.mime),a.getElementsByTagName("parsererror").length===0){if(m.type==="image/svg+xml"){const p=a.createElementNS("http://www.w3.org/2000/svg","script");p.setAttributeNS(null,"type","application/ecmascript"),p.innerHTML=`(${y})();`,a.documentElement.insertBefore(p,a.documentElement.firstChild)}else{const p=`
								&lt;script&gt;(
									${y}
								)();
								&lt;\/script&gt;
							`;a.documentElement.insertAdjacentHTML("afterbegin",p)}s.useXMLparser===!0?n[0]=[new XMLSerializer().serializeToString(a)]:n[0][0]=a.documentElement.outerHTML}}}return N(e,n)}let i=Object.getOwnPropertyNames(e);for(let n=0;n&lt;i.length;n++){let l=i[n];if(l in t)continue;let m=Object.getOwnPropertyDescriptor(e,l);Object.defineProperty(t,l,m)}return t.prototype=e.prototype,t}(Blob);function E(e){if(typeof e=="object"&amp;&amp;typeof e.coords=="object"){const t=j(),i=r,n=f;d=e.coords.lat,g=e.coords.lon,r=e.fakeIt,f=!0,h={lat:d,lon:g},n&amp;&amp;(t||i!==r)&amp;&amp;G()}}typeof chrome&lt;"u"?setInterval(()=&gt;{chrome.runtime.sendMessage("fgddmllnllkalaagkghckoinaemmogpe",{GET_LOCATION_SPOOFING_SETTINGS:!0},e=&gt;{E(e)})},500):typeof k&lt;"u"&amp;&amp;document.addEventListener(k,function(e){try{const t=JSON.parse(e.detail);E(t)}catch{}})})();</script>
<desc>Created with SVGMaker Editor 3.0.0</desc>
<defs>
</defs>
<g transform="matrix(1 0 0 1 92.5 92.5)">
<linearGradient id="SVGID_619" gradientUnits="userSpaceOnUse" gradientTransform="matrix(1 0 0 1 0 0)" x1="0" y1="92.5" x2="185" y2="92.5">
<stop offset="0%" style="stop-color:rgba(109,196,125,1);"/>
<stop offset="100%" style="stop-color:rgb(13, 115, 30);"/>
</linearGradient>
<path transform=" translate(-92.5, -92.5)" style="fill: url(#SVGID_619)" stroke-linecap="round" d="M 0 92.5 C 0 41.4137 41.4137 0 92.5 0 L 135 0 C 162.614 0 185 22.3858 185 50 L 185 92.5 C 185 143.586 143.586 185 92.5 185 L 92.5 185 C 41.4137 185 0 143.586 0 92.5 L 0 92.5 Z"/>
</g>
<path transform="translate(0,0)" style="fill: rgb(27,26,27)" stroke-linecap="round" d="M85.4191 145.5767Q79.4936 145.5767 74.2265 142.9431 68.9594 140.3096 65.7465 135.7009 62.5073 131.0922 62.5073 125.2984L64.0874 124.5084Q70.2762 129.117 76.465 129.117 80.0203 129.117 83.1805 127.1419 86.3408 125.1667 88.79 120.163 91.2128 115.1593 92.6086 106.3369 93.9781 97.5146 93.9781 83.6885 93.9781 71.9692 95.5055 64.2003 97.0066 56.4313 101.747 49.9792 100.0352 48.7941 97.744 47.7933 95.4265 46.8189 92.9246 46.8189 88.711 46.8189 86.0248 49.9265 83.3122 53.0077 83.3122 57.7481 83.3122 60.25 84.155 63.0152 85.024 65.7804 86.8675 68.5456 78.9669 68.5456 73.7788 65.7277 68.5644 62.8835 66.0099 58.5382 63.429 54.1928 63.429 49.4525 63.429 44.7121 65.7465 40.4984 68.0377 36.2848 72.6464 33.5722 77.2551 30.886 83.8389 30.886 88.9743 30.886 95.2948 32.9138 101.6153 34.968 109.1209 39.7084 113.7296 34.3096 117.4166 32.9928 121.1035 31.6761 123.2104 31.6761 128.6091 31.6761 131.111 35.284 133.6128 38.9183 133.6128 43.922 133.6128 47.214 132.3751 50.3742 131.111 53.5345 128.4774 55.5623 125.8439 57.6164 121.6302 57.6164 120.3135 57.6164 118.8123 57.3531 117.2849 57.0897 115.4414 56.4313 114.5197 58.8015 114.1246 61.9618 113.7296 65.122 113.7296 68.809 113.7296 76.0512 114.5197 84.2679 115.3097 92.5108 115.3097 100.4115 115.3097 112.7891 112.6762 121.4008 110.0427 130.0388 105.6973 135.3849 101.352 140.7046 96.0849 143.1538 90.8178 145.5767 85.4191 145.5767Z"/>
</svg>